<?xml version="1.0" standalone="no"?>
<!DOCTYPE svg PUBLIC "-//W3C//DTD SVG 20010904//EN"
 "http://www.w3.org/TR/2001/REC-SVG-20010904/DTD/svg10.dtd">
<svg version="1.0" xmlns="http://www.w3.org/2000/svg"
 width="260.000000pt" height="260.000000pt" viewBox="0 0 260.000000 260.000000"
 preserveAspectRatio="xMidYMid meet">
<metadata>
Created by potrace 1.11, written by Peter Selinger 2001-2013
</metadata>
<g transform="translate(0.000000,260.000000) scale(0.100000,-0.100000)"
fill="#000000" stroke="none">
<path d="M1139 1951 c-15 -12 -22 -28 -21 -49 1 -37 -4 -41 -57 -47 -112 -12
-254 -74 -332 -144 -36 -34 -89 -116 -89 -140 0 -10 -3 -21 -7 -25 -12 -11
-15 -37 -15 -126 0 -95 17 -152 85 -280 37 -70 121 -212 139 -235 5 -5 21 -27
38 -48 48 -63 93 -110 145 -152 94 -76 140 -95 227 -98 31 -1 37 -5 37 -22 0
-11 0 -67 0 -125 1 -161 -6 -209 -29 -195 -4 3 -15 -12 -23 -34 -14 -33 -23
-41 -69 -56 -29 -9 -61 -26 -71 -36 -24 -25 -47 -82 -47 -114 l0 -25 360 0
c405 0 378 -6 344 76 -19 47 -40 71 -76 90 -25 13 -112 35 -145 37 -7 0 -13
10 -13 22 0 11 -5 26 -10 31 -6 6 -13 69 -15 140 -2 71 -6 140 -9 153 -3 13
-8 46 -11 75 -6 49 -5 52 24 69 17 10 63 50 104 90 195 191 322 463 312 668
-13 269 -197 412 -545 424 -58 2 -111 4 -118 5 -7 0 -11 4 -8 9 9 14 -37 74
-61 77 -12 2 -31 -5 -44 -15z"/>
</g>
</svg>
